# MagicaVoxel @ Ephtracy

# group
o 

# material
mtllib chain.mtl
usemtl palette

# normals
vn -1 0 0
vn 1 0 0
vn 0 0 1
vn 0 0 -1
vn 0 -1 0
vn 0 1 0

# texcoords
vt 0.126953 0.5
vt 0.947266 0.5
vt 0.955078 0.5

# verts
v 0 2 0
v 0 2 -0.4
v 0 2.6 0
v 0 2.6 -0.4
v 0.1 2.6 -0.1
v 0.1 2.6 -0.3
v 0.1 3.1 -0.1
v 0.1 3.1 -0.3
v 0.2 2 -0.1
v 0.2 2 -0.3
v 0.2 2.1 -0.2
v 0.2 2.1 -0.3
v 0.2 2.2 -0.2
v 0.2 2.2 -0.3
v 0.2 2.5 -0.1
v 0.2 2.5 -0.3
v 0.2 3.1 -0.1
v 0.2 3.1 -0.3
v 0.2 3.2 -0.1
v 0.2 3.2 -0.3
v 0.2 3.6 -0.1
v 0.2 3.6 -0.3
v 0.2 4.4 -0.1
v 0.2 4.4 -0.3
v 0.2 4.7 -0.1
v 0.2 4.7 -0.3
v 0.2 5.5 -0.1
v 0.2 5.5 -0.3
v 0.3 3 0
v 0.3 3 -0.1
v 0.3 3 -0.3
v 0.3 3 -0.4
v 0.3 3.2 -0.1
v 0.3 3.2 -0.3
v 0.3 3.6 -0.1
v 0.3 3.6 -0.3
v 0.3 3.8 0
v 0.3 3.8 -0.1
v 0.3 3.8 -0.3
v 0.3 3.8 -0.4
v 0.3 4.1 0
v 0.3 4.1 -0.1
v 0.3 4.1 -0.3
v 0.3 4.1 -0.4
v 0.3 4.4 -0.1
v 0.3 4.4 -0.3
v 0.3 4.7 -0.1
v 0.3 4.7 -0.3
v 0.3 4.9 0
v 0.3 4.9 -0.1
v 0.3 4.9 -0.3
v 0.3 4.9 -0.4
v 0.3 5.3 0
v 0.3 5.3 -0.1
v 0.3 5.3 -0.3
v 0.3 5.3 -0.4
v 0.3 5.5 -0.1
v 0.3 5.5 -0.3
v 0.3 5.9 0
v 0.3 5.9 -0.1
v 0.3 5.9 -0.3
v 0.3 5.9 -0.4
v 0.5 3.8 -0.1
v 0.5 3.8 -0.3
v 0.5 4.1 -0.1
v 0.5 4.1 -0.3
v 0.5 4.9 -0.1
v 0.5 4.9 -0.3
v 0.5 5.3 -0.1
v 0.5 5.3 -0.3
v 0.6 2.6 -0.1
v 0.6 2.6 -0.3
v 0.6 3 -0.1
v 0.6 3 -0.3
v 0.7 2.1 -0.1
v 0.7 2.1 -0.2
v 0.7 2.2 -0.2
v 0.7 2.2 -0.3
v 0.7 2.5 -0.1
v 0.7 2.5 -0.3
v 0.1 2 -0.1
v 0.1 2 -0.3
v 0.1 2.1 -0.2
v 0.1 2.1 -0.3
v 0.1 2.2 -0.2
v 0.1 2.2 -0.3
v 0.1 2.5 -0.1
v 0.1 2.5 -0.3
v 0.2 2.6 -0.1
v 0.2 2.6 -0.3
v 0.2 3 -0.1
v 0.2 3 -0.3
v 0.3 3.8 -0.1
v 0.3 3.8 -0.3
v 0.3 4.1 -0.1
v 0.3 4.1 -0.3
v 0.3 4.9 -0.1
v 0.3 4.9 -0.3
v 0.3 5.3 -0.1
v 0.3 5.3 -0.3
v 0.5 3 0
v 0.5 3 -0.1
v 0.5 3 -0.3
v 0.5 3 -0.4
v 0.5 3.2 -0.1
v 0.5 3.2 -0.3
v 0.5 3.6 -0.1
v 0.5 3.6 -0.3
v 0.5 3.8 0
v 0.5 3.8 -0.1
v 0.5 3.8 -0.3
v 0.5 3.8 -0.4
v 0.5 4.1 0
v 0.5 4.1 -0.1
v 0.5 4.1 -0.3
v 0.5 4.1 -0.4
v 0.5 4.4 -0.1
v 0.5 4.4 -0.3
v 0.5 4.7 -0.1
v 0.5 4.7 -0.3
v 0.5 4.9 0
v 0.5 4.9 -0.1
v 0.5 4.9 -0.3
v 0.5 4.9 -0.4
v 0.5 5.3 0
v 0.5 5.3 -0.1
v 0.5 5.3 -0.3
v 0.5 5.3 -0.4
v 0.5 5.5 -0.1
v 0.5 5.5 -0.3
v 0.5 5.9 0
v 0.5 5.9 -0.1
v 0.5 5.9 -0.3
v 0.5 5.9 -0.4
v 0.6 2.1 -0.1
v 0.6 2.1 -0.2
v 0.6 2.2 -0.2
v 0.6 2.2 -0.3
v 0.6 2.5 -0.1
v 0.6 2.5 -0.3
v 0.6 3.1 -0.1
v 0.6 3.1 -0.3
v 0.6 3.2 -0.1
v 0.6 3.2 -0.3
v 0.6 3.6 -0.1
v 0.6 3.6 -0.3
v 0.6 4.4 -0.1
v 0.6 4.4 -0.3
v 0.6 4.7 -0.1
v 0.6 4.7 -0.3
v 0.6 5.5 -0.1
v 0.6 5.5 -0.3
v 0.7 2.6 -0.1
v 0.7 2.6 -0.3
v 0.7 3.1 -0.1
v 0.7 3.1 -0.3
v 0.8 2 0
v 0.8 2 -0.4
v 0.8 2.6 0
v 0.8 2.6 -0.4
v 0 2 0
v 0 2.6 0
v 0.3 3 0
v 0.3 3.8 0
v 0.3 4.1 0
v 0.3 4.9 0
v 0.3 5.3 0
v 0.3 5.9 0
v 0.5 3 0
v 0.5 3.8 0
v 0.5 4.1 0
v 0.5 4.9 0
v 0.5 5.3 0
v 0.5 5.9 0
v 0.8 2 0
v 0.8 2.6 0
v 0.1 2.6 -0.1
v 0.1 3.1 -0.1
v 0.2 2.6 -0.1
v 0.2 3 -0.1
v 0.2 3.1 -0.1
v 0.2 3.2 -0.1
v 0.2 3.6 -0.1
v 0.2 4.4 -0.1
v 0.2 4.7 -0.1
v 0.2 5.5 -0.1
v 0.3 3 -0.1
v 0.3 3.2 -0.1
v 0.3 3.6 -0.1
v 0.3 3.8 -0.1
v 0.3 4.1 -0.1
v 0.3 4.4 -0.1
v 0.3 4.7 -0.1
v 0.3 4.9 -0.1
v 0.3 5.3 -0.1
v 0.3 5.5 -0.1
v 0.5 3 -0.1
v 0.5 3.2 -0.1
v 0.5 3.6 -0.1
v 0.5 3.8 -0.1
v 0.5 4.1 -0.1
v 0.5 4.4 -0.1
v 0.5 4.7 -0.1
v 0.5 4.9 -0.1
v 0.5 5.3 -0.1
v 0.5 5.5 -0.1
v 0.6 2.6 -0.1
v 0.6 3 -0.1
v 0.6 3.1 -0.1
v 0.6 3.2 -0.1
v 0.6 3.6 -0.1
v 0.6 4.4 -0.1
v 0.6 4.7 -0.1
v 0.6 5.5 -0.1
v 0.7 2.6 -0.1
v 0.7 3.1 -0.1
v 0.1 2.1 -0.2
v 0.1 2.2 -0.2
v 0.2 2.1 -0.2
v 0.2 2.2 -0.2
v 0.6 2.1 -0.2
v 0.6 2.2 -0.2
v 0.7 2.1 -0.2
v 0.7 2.2 -0.2
v 0.1 2 -0.3
v 0.1 2.1 -0.3
v 0.1 2.2 -0.3
v 0.1 2.5 -0.3
v 0.2 2 -0.3
v 0.2 2.1 -0.3
v 0.2 2.2 -0.3
v 0.2 2.5 -0.3
v 0.3 3.2 -0.3
v 0.3 3.6 -0.3
v 0.3 4.4 -0.3
v 0.3 4.7 -0.3
v 0.3 5.5 -0.3
v 0.3 5.9 -0.3
v 0.5 3.2 -0.3
v 0.5 3.6 -0.3
v 0.5 4.4 -0.3
v 0.5 4.7 -0.3
v 0.5 5.5 -0.3
v 0.5 5.9 -0.3
v 0.6 2.2 -0.3
v 0.6 2.5 -0.3
v 0.7 2.2 -0.3
v 0.7 2.5 -0.3
v 0.1 2 -0.1
v 0.1 2.5 -0.1
v 0.2 2 -0.1
v 0.2 2.5 -0.1
v 0.3 3.2 -0.1
v 0.3 3.6 -0.1
v 0.3 4.4 -0.1
v 0.3 4.7 -0.1
v 0.3 5.5 -0.1
v 0.3 5.9 -0.1
v 0.5 3.2 -0.1
v 0.5 3.6 -0.1
v 0.5 4.4 -0.1
v 0.5 4.7 -0.1
v 0.5 5.5 -0.1
v 0.5 5.9 -0.1
v 0.6 2.1 -0.1
v 0.6 2.5 -0.1
v 0.7 2.1 -0.1
v 0.7 2.5 -0.1
v 0.1 2.6 -0.3
v 0.1 3.1 -0.3
v 0.2 2.6 -0.3
v 0.2 3 -0.3
v 0.2 3.1 -0.3
v 0.2 3.2 -0.3
v 0.2 3.6 -0.3
v 0.2 4.4 -0.3
v 0.2 4.7 -0.3
v 0.2 5.5 -0.3
v 0.3 3 -0.3
v 0.3 3.2 -0.3
v 0.3 3.6 -0.3
v 0.3 3.8 -0.3
v 0.3 4.1 -0.3
v 0.3 4.4 -0.3
v 0.3 4.7 -0.3
v 0.3 4.9 -0.3
v 0.3 5.3 -0.3
v 0.3 5.5 -0.3
v 0.5 3 -0.3
v 0.5 3.2 -0.3
v 0.5 3.6 -0.3
v 0.5 3.8 -0.3
v 0.5 4.1 -0.3
v 0.5 4.4 -0.3
v 0.5 4.7 -0.3
v 0.5 4.9 -0.3
v 0.5 5.3 -0.3
v 0.5 5.5 -0.3
v 0.6 2.6 -0.3
v 0.6 3 -0.3
v 0.6 3.1 -0.3
v 0.6 3.2 -0.3
v 0.6 3.6 -0.3
v 0.6 4.4 -0.3
v 0.6 4.7 -0.3
v 0.6 5.5 -0.3
v 0.7 2.6 -0.3
v 0.7 3.1 -0.3
v 0 2 -0.4
v 0 2.6 -0.4
v 0.3 3 -0.4
v 0.3 3.8 -0.4
v 0.3 4.1 -0.4
v 0.3 4.9 -0.4
v 0.3 5.3 -0.4
v 0.3 5.9 -0.4
v 0.5 3 -0.4
v 0.5 3.8 -0.4
v 0.5 4.1 -0.4
v 0.5 4.9 -0.4
v 0.5 5.3 -0.4
v 0.5 5.9 -0.4
v 0.8 2 -0.4
v 0.8 2.6 -0.4
v 0 2 0
v 0.8 2 0
v 0.1 2 -0.1
v 0.2 2 -0.1
v 0.1 2 -0.3
v 0.2 2 -0.3
v 0 2 -0.4
v 0.8 2 -0.4
v 0.1 2.1 -0.2
v 0.2 2.1 -0.2
v 0.1 2.1 -0.3
v 0.2 2.1 -0.3
v 0.1 2.5 -0.1
v 0.2 2.5 -0.1
v 0.6 2.5 -0.1
v 0.7 2.5 -0.1
v 0.1 2.5 -0.3
v 0.2 2.5 -0.3
v 0.6 2.5 -0.3
v 0.7 2.5 -0.3
v 0.3 3 0
v 0.5 3 0
v 0.2 3 -0.1
v 0.3 3 -0.1
v 0.5 3 -0.1
v 0.6 3 -0.1
v 0.2 3 -0.3
v 0.3 3 -0.3
v 0.5 3 -0.3
v 0.6 3 -0.3
v 0.3 3 -0.4
v 0.5 3 -0.4
v 0.2 3.6 -0.1
v 0.3 3.6 -0.1
v 0.5 3.6 -0.1
v 0.6 3.6 -0.1
v 0.2 3.6 -0.3
v 0.3 3.6 -0.3
v 0.5 3.6 -0.3
v 0.6 3.6 -0.3
v 0.3 4.1 0
v 0.5 4.1 0
v 0.3 4.1 -0.1
v 0.5 4.1 -0.1
v 0.3 4.1 -0.3
v 0.5 4.1 -0.3
v 0.3 4.1 -0.4
v 0.5 4.1 -0.4
v 0.2 4.7 -0.1
v 0.3 4.7 -0.1
v 0.5 4.7 -0.1
v 0.6 4.7 -0.1
v 0.2 4.7 -0.3
v 0.3 4.7 -0.3
v 0.5 4.7 -0.3
v 0.6 4.7 -0.3
v 0.3 5.3 0
v 0.5 5.3 0
v 0.3 5.3 -0.1
v 0.5 5.3 -0.1
v 0.3 5.3 -0.3
v 0.5 5.3 -0.3
v 0.3 5.3 -0.4
v 0.5 5.3 -0.4
v 0.6 2.1 -0.1
v 0.7 2.1 -0.1
v 0.6 2.1 -0.2
v 0.7 2.1 -0.2
v 0.1 2.2 -0.2
v 0.2 2.2 -0.2
v 0.6 2.2 -0.2
v 0.7 2.2 -0.2
v 0.1 2.2 -0.3
v 0.2 2.2 -0.3
v 0.6 2.2 -0.3
v 0.7 2.2 -0.3
v 0 2.6 0
v 0.8 2.6 0
v 0.1 2.6 -0.1
v 0.2 2.6 -0.1
v 0.6 2.6 -0.1
v 0.7 2.6 -0.1
v 0.1 2.6 -0.3
v 0.2 2.6 -0.3
v 0.6 2.6 -0.3
v 0.7 2.6 -0.3
v 0 2.6 -0.4
v 0.8 2.6 -0.4
v 0.1 3.1 -0.1
v 0.2 3.1 -0.1
v 0.6 3.1 -0.1
v 0.7 3.1 -0.1
v 0.1 3.1 -0.3
v 0.2 3.1 -0.3
v 0.6 3.1 -0.3
v 0.7 3.1 -0.3
v 0.2 3.2 -0.1
v 0.3 3.2 -0.1
v 0.5 3.2 -0.1
v 0.6 3.2 -0.1
v 0.2 3.2 -0.3
v 0.3 3.2 -0.3
v 0.5 3.2 -0.3
v 0.6 3.2 -0.3
v 0.3 3.8 0
v 0.5 3.8 0
v 0.3 3.8 -0.1
v 0.5 3.8 -0.1
v 0.3 3.8 -0.3
v 0.5 3.8 -0.3
v 0.3 3.8 -0.4
v 0.5 3.8 -0.4
v 0.2 4.4 -0.1
v 0.3 4.4 -0.1
v 0.5 4.4 -0.1
v 0.6 4.4 -0.1
v 0.2 4.4 -0.3
v 0.3 4.4 -0.3
v 0.5 4.4 -0.3
v 0.6 4.4 -0.3
v 0.3 4.9 0
v 0.5 4.9 0
v 0.3 4.9 -0.1
v 0.5 4.9 -0.1
v 0.3 4.9 -0.3
v 0.5 4.9 -0.3
v 0.3 4.9 -0.4
v 0.5 4.9 -0.4
v 0.2 5.5 -0.1
v 0.3 5.5 -0.1
v 0.5 5.5 -0.1
v 0.6 5.5 -0.1
v 0.2 5.5 -0.3
v 0.3 5.5 -0.3
v 0.5 5.5 -0.3
v 0.6 5.5 -0.3
v 0.3 5.9 0
v 0.5 5.9 0
v 0.3 5.9 -0.1
v 0.5 5.9 -0.1
v 0.3 5.9 -0.3
v 0.5 5.9 -0.3
v 0.3 5.9 -0.4
v 0.5 5.9 -0.4

# faces
f 3/3/1 2/3/1 1/3/1
f 4/3/1 2/3/1 3/3/1
f 7/2/1 6/2/1 5/2/1
f 8/2/1 6/2/1 7/2/1
f 11/3/1 10/3/1 9/3/1
f 12/3/1 10/3/1 11/3/1
f 13/3/1 11/3/1 9/3/1
f 15/3/1 13/3/1 9/3/1
f 15/3/1 14/3/1 13/3/1
f 16/3/1 14/3/1 15/3/1
f 19/2/1 18/2/1 17/2/1
f 20/2/1 18/2/1 19/2/1
f 23/1/1 22/1/1 21/1/1
f 24/1/1 22/1/1 23/1/1
f 27/1/1 26/1/1 25/1/1
f 28/1/1 26/1/1 27/1/1
f 33/1/1 30/1/1 29/1/1
f 34/1/1 32/1/1 31/1/1
f 35/1/1 33/1/1 29/1/1
f 36/1/1 32/1/1 34/1/1
f 37/1/1 35/1/1 29/1/1
f 38/1/1 35/1/1 37/1/1
f 39/1/1 32/1/1 36/1/1
f 40/1/1 32/1/1 39/1/1
f 45/1/1 42/1/1 41/1/1
f 46/1/1 44/1/1 43/1/1
f 47/1/1 45/1/1 41/1/1
f 48/1/1 44/1/1 46/1/1
f 49/1/1 47/1/1 41/1/1
f 50/1/1 47/1/1 49/1/1
f 51/1/1 44/1/1 48/1/1
f 52/1/1 44/1/1 51/1/1
f 57/1/1 54/1/1 53/1/1
f 58/1/1 56/1/1 55/1/1
f 59/1/1 57/1/1 53/1/1
f 60/1/1 57/1/1 59/1/1
f 61/1/1 56/1/1 58/1/1
f 62/1/1 56/1/1 61/1/1
f 65/1/1 64/1/1 63/1/1
f 66/1/1 64/1/1 65/1/1
f 69/1/1 68/1/1 67/1/1
f 70/1/1 68/1/1 69/1/1
f 73/2/1 72/2/1 71/2/1
f 74/2/1 72/2/1 73/2/1
f 77/3/1 76/3/1 75/3/1
f 79/3/1 77/3/1 75/3/1
f 79/3/1 78/3/1 77/3/1
f 80/3/1 78/3/1 79/3/1
f 81/3/2 82/3/2 83/3/2
f 83/3/2 82/3/2 84/3/2
f 81/3/2 83/3/2 85/3/2
f 81/3/2 85/3/2 87/3/2
f 85/3/2 86/3/2 87/3/2
f 87/3/2 86/3/2 88/3/2
f 89/2/2 90/2/2 91/2/2
f 91/2/2 90/2/2 92/2/2
f 93/1/2 94/1/2 95/1/2
f 95/1/2 94/1/2 96/1/2
f 97/1/2 98/1/2 99/1/2
f 99/1/2 98/1/2 100/1/2
f 101/1/2 102/1/2 105/1/2
f 103/1/2 104/1/2 106/1/2
f 101/1/2 105/1/2 107/1/2
f 106/1/2 104/1/2 108/1/2
f 101/1/2 107/1/2 109/1/2
f 109/1/2 107/1/2 110/1/2
f 108/1/2 104/1/2 111/1/2
f 111/1/2 104/1/2 112/1/2
f 113/1/2 114/1/2 117/1/2
f 115/1/2 116/1/2 118/1/2
f 113/1/2 117/1/2 119/1/2
f 118/1/2 116/1/2 120/1/2
f 113/1/2 119/1/2 121/1/2
f 121/1/2 119/1/2 122/1/2
f 120/1/2 116/1/2 123/1/2
f 123/1/2 116/1/2 124/1/2
f 125/1/2 126/1/2 129/1/2
f 127/1/2 128/1/2 130/1/2
f 125/1/2 129/1/2 131/1/2
f 131/1/2 129/1/2 132/1/2
f 130/1/2 128/1/2 133/1/2
f 133/1/2 128/1/2 134/1/2
f 135/3/2 136/3/2 137/3/2
f 135/3/2 137/3/2 139/3/2
f 137/3/2 138/3/2 139/3/2
f 139/3/2 138/3/2 140/3/2
f 141/2/2 142/2/2 143/2/2
f 143/2/2 142/2/2 144/2/2
f 145/1/2 146/1/2 147/1/2
f 147/1/2 146/1/2 148/1/2
f 149/1/2 150/1/2 151/1/2
f 151/1/2 150/1/2 152/1/2
f 153/2/2 154/2/2 155/2/2
f 155/2/2 154/2/2 156/2/2
f 157/3/2 158/3/2 159/3/2
f 159/3/2 158/3/2 160/3/2
f 169/1/3 164/1/3 163/1/3
f 170/1/3 164/1/3 169/1/3
f 171/1/3 166/1/3 165/1/3
f 172/1/3 166/1/3 171/1/3
f 173/1/3 168/1/3 167/1/3
f 174/1/3 168/1/3 173/1/3
f 175/3/3 162/3/3 161/3/3
f 176/3/3 162/3/3 175/3/3
f 179/2/3 178/2/3 177/2/3
f 180/2/3 178/2/3 179/2/3
f 181/2/3 178/2/3 180/2/3
f 187/2/3 181/2/3 180/2/3
f 187/2/3 182/2/3 181/2/3
f 188/2/3 182/2/3 187/2/3
f 189/1/3 184/1/3 183/1/3
f 190/1/3 184/1/3 189/1/3
f 191/1/3 184/1/3 190/1/3
f 192/1/3 184/1/3 191/1/3
f 193/1/3 186/1/3 185/1/3
f 194/1/3 186/1/3 193/1/3
f 195/1/3 186/1/3 194/1/3
f 196/1/3 186/1/3 195/1/3
f 208/2/3 198/2/3 197/2/3
f 209/2/3 198/2/3 208/2/3
f 210/2/3 198/2/3 209/2/3
f 211/1/3 200/1/3 199/1/3
f 211/1/3 201/1/3 200/1/3
f 211/1/3 202/1/3 201/1/3
f 212/1/3 202/1/3 211/1/3
f 213/1/3 206/1/3 205/1/3
f 213/1/3 204/1/3 203/1/3
f 213/1/3 205/1/3 204/1/3
f 214/1/3 206/1/3 213/1/3
f 215/2/3 209/2/3 208/2/3
f 215/2/3 208/2/3 207/2/3
f 216/2/3 209/2/3 215/2/3
f 219/3/3 218/3/3 217/3/3
f 220/3/3 218/3/3 219/3/3
f 223/3/3 222/3/3 221/3/3
f 224/3/3 222/3/3 223/3/3
f 229/3/3 226/3/3 225/3/3
f 230/3/3 226/3/3 229/3/3
f 231/3/3 228/3/3 227/3/3
f 232/3/3 228/3/3 231/3/3
f 239/1/3 234/1/3 233/1/3
f 240/1/3 234/1/3 239/1/3
f 241/1/3 236/1/3 235/1/3
f 242/1/3 236/1/3 241/1/3
f 243/1/3 238/1/3 237/1/3
f 244/1/3 238/1/3 243/1/3
f 247/3/3 246/3/3 245/3/3
f 248/3/3 246/3/3 247/3/3
f 249/3/4 250/3/4 251/3/4
f 251/3/4 250/3/4 252/3/4
f 253/1/4 254/1/4 259/1/4
f 259/1/4 254/1/4 260/1/4
f 255/1/4 256/1/4 261/1/4
f 261/1/4 256/1/4 262/1/4
f 257/1/4 258/1/4 263/1/4
f 263/1/4 258/1/4 264/1/4
f 265/3/4 266/3/4 267/3/4
f 267/3/4 266/3/4 268/3/4
f 269/2/4 270/2/4 271/2/4
f 271/2/4 270/2/4 272/2/4
f 272/2/4 270/2/4 273/2/4
f 272/2/4 273/2/4 279/2/4
f 273/2/4 274/2/4 279/2/4
f 279/2/4 274/2/4 280/2/4
f 275/1/4 276/1/4 281/1/4
f 281/1/4 276/1/4 282/1/4
f 282/1/4 276/1/4 283/1/4
f 283/1/4 276/1/4 284/1/4
f 277/1/4 278/1/4 285/1/4
f 285/1/4 278/1/4 286/1/4
f 286/1/4 278/1/4 287/1/4
f 287/1/4 278/1/4 288/1/4
f 289/2/4 290/2/4 300/2/4
f 300/2/4 290/2/4 301/2/4
f 301/2/4 290/2/4 302/2/4
f 291/1/4 292/1/4 303/1/4
f 292/1/4 293/1/4 303/1/4
f 293/1/4 294/1/4 303/1/4
f 303/1/4 294/1/4 304/1/4
f 297/1/4 298/1/4 305/1/4
f 295/1/4 296/1/4 305/1/4
f 296/1/4 297/1/4 305/1/4
f 305/1/4 298/1/4 306/1/4
f 300/2/4 301/2/4 307/2/4
f 299/2/4 300/2/4 307/2/4
f 307/2/4 301/2/4 308/2/4
f 311/1/4 312/1/4 317/1/4
f 317/1/4 312/1/4 318/1/4
f 313/1/4 314/1/4 319/1/4
f 319/1/4 314/1/4 320/1/4
f 315/1/4 316/1/4 321/1/4
f 321/1/4 316/1/4 322/1/4
f 309/3/4 310/3/4 323/3/4
f 323/3/4 310/3/4 324/3/4
f 327/3/5 326/3/5 325/3/5
f 328/3/5 326/3/5 327/3/5
f 329/3/5 327/3/5 325/3/5
f 330/3/5 326/3/5 328/3/5
f 331/3/5 329/3/5 325/3/5
f 331/3/5 330/3/5 329/3/5
f 332/3/5 326/3/5 330/3/5
f 332/3/5 330/3/5 331/3/5
f 335/3/5 334/3/5 333/3/5
f 336/3/5 334/3/5 335/3/5
f 341/2/5 338/2/5 337/2/5
f 342/2/5 338/2/5 341/2/5
f 343/2/5 340/2/5 339/2/5
f 344/2/5 340/2/5 343/2/5
f 348/1/5 346/1/5 345/1/5
f 349/1/5 346/1/5 348/1/5
f 351/2/5 348/2/5 347/2/5
f 352/1/5 349/1/5 348/1/5
f 352/2/5 348/2/5 351/2/5
f 353/2/5 350/2/5 349/2/5
f 353/1/5 349/1/5 352/1/5
f 354/2/5 350/2/5 353/2/5
f 355/1/5 353/1/5 352/1/5
f 356/1/5 353/1/5 355/1/5
f 361/1/5 358/1/5 357/1/5
f 361/1/5 360/1/5 359/1/5
f 361/1/5 359/1/5 358/1/5
f 362/1/5 360/1/5 361/1/5
f 363/1/5 360/1/5 362/1/5
f 364/1/5 360/1/5 363/1/5
f 367/1/5 366/1/5 365/1/5
f 368/1/5 366/1/5 367/1/5
f 369/1/5 368/1/5 367/1/5
f 370/1/5 368/1/5 369/1/5
f 371/1/5 370/1/5 369/1/5
f 372/1/5 370/1/5 371/1/5
f 377/1/5 374/1/5 373/1/5
f 377/1/5 376/1/5 375/1/5
f 377/1/5 375/1/5 374/1/5
f 378/1/5 376/1/5 377/1/5
f 379/1/5 376/1/5 378/1/5
f 380/1/5 376/1/5 379/1/5
f 383/1/5 382/1/5 381/1/5
f 384/1/5 382/1/5 383/1/5
f 385/1/5 384/1/5 383/1/5
f 386/1/5 384/1/5 385/1/5
f 387/1/5 386/1/5 385/1/5
f 388/1/5 386/1/5 387/1/5
f 389/3/6 390/3/6 391/3/6
f 391/3/6 390/3/6 392/3/6
f 393/3/6 394/3/6 397/3/6
f 397/3/6 394/3/6 398/3/6
f 395/3/6 396/3/6 399/3/6
f 399/3/6 396/3/6 400/3/6
f 401/3/6 402/3/6 403/3/6
f 403/3/6 402/3/6 404/3/6
f 404/3/6 402/3/6 405/3/6
f 405/3/6 402/3/6 406/3/6
f 401/3/6 403/3/6 407/3/6
f 404/3/6 405/3/6 408/3/6
f 408/3/6 405/3/6 409/3/6
f 406/3/6 402/3/6 410/3/6
f 408/3/6 409/3/6 411/3/6
f 409/3/6 410/3/6 411/3/6
f 401/3/6 407/3/6 411/3/6
f 407/3/6 408/3/6 411/3/6
f 410/3/6 402/3/6 412/3/6
f 411/3/6 410/3/6 412/3/6
f 413/2/6 414/2/6 417/2/6
f 417/2/6 414/2/6 418/2/6
f 415/2/6 416/2/6 419/2/6
f 419/2/6 416/2/6 420/2/6
f 421/2/6 422/2/6 425/2/6
f 423/2/6 424/2/6 425/2/6
f 422/2/6 423/2/6 425/2/6
f 425/2/6 424/2/6 426/2/6
f 426/2/6 424/2/6 427/2/6
f 427/2/6 424/2/6 428/2/6
f 429/1/6 430/1/6 431/1/6
f 431/1/6 430/1/6 432/1/6
f 431/1/6 432/1/6 433/1/6
f 433/1/6 432/1/6 434/1/6
f 433/1/6 434/1/6 435/1/6
f 435/1/6 434/1/6 436/1/6
f 437/1/6 438/1/6 441/1/6
f 439/1/6 440/1/6 441/1/6
f 438/1/6 439/1/6 441/1/6
f 441/1/6 440/1/6 442/1/6
f 442/1/6 440/1/6 443/1/6
f 443/1/6 440/1/6 444/1/6
f 445/1/6 446/1/6 447/1/6
f 447/1/6 446/1/6 448/1/6
f 447/1/6 448/1/6 449/1/6
f 449/1/6 448/1/6 450/1/6
f 449/1/6 450/1/6 451/1/6
f 451/1/6 450/1/6 452/1/6
f 453/1/6 454/1/6 457/1/6
f 455/1/6 456/1/6 457/1/6
f 454/1/6 455/1/6 457/1/6
f 457/1/6 456/1/6 458/1/6
f 458/1/6 456/1/6 459/1/6
f 459/1/6 456/1/6 460/1/6
f 461/1/6 462/1/6 463/1/6
f 463/1/6 462/1/6 464/1/6
f 465/1/6 466/1/6 467/1/6
f 467/1/6 466/1/6 468/1/6
